<svg id="svg" version="1.1" xmlns="http://www.w3.org/2000/svg" xmlns:xlink="http://www.w3.org/1999/xlink" width="400" height="184.53865336658353" viewBox="0, 0, 400,184.53865336658353"><g id="svgg"><path id="path0" d="M173.301 2.083 C 166.954 3.012,162.920 4.163,148.130 9.264 C 140.842 11.778,135.652 12.873,128.867 13.328 C 84.868 16.282,35.814 41.652,12.007 73.766 C -8.030 100.794,-1.893 118.904,33.465 137.098 C 47.015 144.070,51.116 143.635,80.050 132.150 C 86.044 129.771,79.213 137.696,69.518 144.368 C 62.762 149.019,63.206 150.766,72.070 154.400 C 84.760 159.604,98.528 163.336,113.507 165.634 C 117.897 166.308,124.102 168.285,129.164 170.624 C 158.659 184.250,175.777 186.518,208.720 181.163 C 232.207 177.346,231.864 177.739,220.024 168.216 C 208.948 159.308,208.972 159.633,219.164 156.621 C 244.525 149.127,279.491 131.677,297.400 117.575 C 302.206 113.791,301.939 113.744,317.317 121.119 C 348.804 136.220,392.834 151.441,398.615 149.223 C 402.377 147.779,398.162 140.960,383.143 124.190 C 363.366 102.105,363.196 95.548,381.694 68.209 C 409.203 27.553,406.083 17.518,372.569 38.857 C 350.264 53.059,313.236 72.818,308.928 72.818 C 307.546 72.818,299.271 68.165,289.662 61.984 C 260.170 43.015,246.578 35.733,226.132 27.946 C 214.571 23.542,214.607 23.996,225.212 16.597 C 234.931 9.815,234.917 9.750,222.884 6.440 C 205.378 1.623,187.294 0.034,173.301 2.083 M134.939 56.968 C 150.235 82.847,143.884 112.151,117.504 137.407 L 114.117 140.650 117.914 132.919 C 133.167 101.859,134.312 75.782,121.777 44.888 L 118.742 37.406 124.957 44.000 C 128.375 47.627,132.867 53.462,134.939 56.968 M72.691 63.936 C 77.725 68.626,77.715 75.028,72.668 79.275 C 64.525 86.127,53.384 76.443,58.354 66.833 C 61.126 61.472,68.456 59.991,72.691 63.936 " stroke="none" fill="#ffb640" fill-rule="evenodd"></path></g></svg>